<svg width="72" height="71" viewBox="0 0 72 71" fill="none" xmlns="http://www.w3.org/2000/svg">
<path d="M6.4165 47.3333C6.4165 38.9659 6.4165 34.7822 9.01593 32.1827C11.6154 29.5833 15.7991 29.5833 24.1665 29.5833H47.8332C56.2005 29.5833 60.3842 29.5833 62.9837 32.1827C65.5832 34.7822 65.5832 38.9659 65.5832 47.3333C65.5832 55.7006 65.5832 59.8843 62.9837 62.4838C60.3842 65.0833 56.2005 65.0833 47.8332 65.0833H24.1665C15.7991 65.0833 11.6154 65.0833 9.01593 62.4838C6.4165 59.8843 6.4165 55.7006 6.4165 47.3333Z" stroke="#E7E7E7" stroke-width="4.4375"/>
<path d="M36 41.4167V53.2501" stroke="#E7E7E7" stroke-width="4.4375" stroke-linecap="round"/>
<path d="M18.25 29.5834V23.6667C18.25 13.8637 26.1969 5.91675 36 5.91675C45.803 5.91675 53.75 13.8637 53.75 23.6667V29.5834" stroke="#E7E7E7" stroke-width="4.4375" stroke-linecap="round"/>
</svg>
