<svg width="12" height="12" viewBox="0 0 12 12" fill="none" xmlns="http://www.w3.org/2000/svg">
<path d="M1 6C1 4.11438 1 3.17157 1.58579 2.58578C2.17158 2 3.11438 2 5 2H7C8.8856 2 9.82845 2 10.4142 2.58578C11 3.17157 11 4.11438 11 6V7C11 8.8856 11 9.82845 10.4142 10.4142C9.82845 11 8.8856 11 7 11H5C3.11438 11 2.17158 11 1.58579 10.4142C1 9.82845 1 8.8856 1 7V6Z" stroke="#888888" stroke-width="0.75"/>
<path d="M3.5 2V1.25" stroke="#e7e7e7" stroke-width="0.75" stroke-linecap="round"/>
<path d="M8.5 2V1.25" stroke="#e7e7e7" stroke-width="0.75" stroke-linecap="round"/>
<path d="M1.25 4.5H10.75" stroke="#e7e7e7" stroke-width="0.75" stroke-linecap="round"/>
<path d="M9 8.5C9 8.77615 8.77615 9 8.5 9C8.22385 9 8 8.77615 8 8.5C8 8.22385 8.22385 8 8.5 8C8.77615 8 9 8.22385 9 8.5Z" fill="#e7e7e7"/>
<path d="M9 6.5C9 6.77615 8.77615 7 8.5 7C8.22385 7 8 6.77615 8 6.5C8 6.22385 8.22385 6 8.5 6C8.77615 6 9 6.22385 9 6.5Z" fill="#e7e7e7"/>
<path d="M6.5 8.5C6.5 8.77615 6.27615 9 6 9C5.72385 9 5.5 8.77615 5.5 8.5C5.5 8.22385 5.72385 8 6 8C6.27615 8 6.5 8.22385 6.5 8.5Z" fill="#e7e7e7"/>
<path d="M6.5 6.5C6.5 6.77615 6.27615 7 6 7C5.72385 7 5.5 6.77615 5.5 6.5C5.5 6.22385 5.72385 6 6 6C6.27615 6 6.5 6.22385 6.5 6.5Z" fill="#e7e7e7"/>
<path d="M4 8.5C4 8.77615 3.77614 9 3.5 9C3.22386 9 3 8.77615 3 8.5C3 8.22385 3.22386 8 3.5 8C3.77614 8 4 8.22385 4 8.5Z" fill="#e7e7e7"/>
<path d="M4 6.5C4 6.77615 3.77614 7 3.5 7C3.22386 7 3 6.77615 3 6.5C3 6.22385 3.22386 6 3.5 6C3.77614 6 4 6.22385 4 6.5Z" fill="#e7e7e7"/>
</svg>
