<svg width="12" height="12" viewBox="0 0 12 12" fill="none" xmlns="http://www.w3.org/2000/svg">
<path d="M11 11H1" stroke="#e7e7e7" stroke-width="0.75" stroke-linecap="round"/>
<path d="M8.5 11V3C8.5 2.05719 8.5 1.58578 8.2071 1.29289C7.9142 1 7.4428 1 6.5 1H5.5C4.55719 1 4.08579 1 3.7929 1.29289C3.5 1.58578 3.5 2.05719 3.5 3V11" stroke="#e7e7e7" stroke-width="0.75"/>
<path d="M10.5 11V5.75C10.5 5.04775 10.5 4.69665 10.3315 4.44443C10.2585 4.33524 10.1647 4.24149 10.0555 4.16853C9.80335 4 9.45225 4 8.75 4" stroke="#e7e7e7" stroke-width="0.75"/>
<path d="M1.5 11V5.75C1.5 5.04775 1.5 4.69665 1.66853 4.44443C1.74149 4.33524 1.83524 4.24149 1.94443 4.16853C2.19666 4 2.54777 4 3.25 4" stroke="#e7e7e7" stroke-width="0.75"/>
<path d="M6 11V9.5" stroke="#e7e7e7" stroke-width="0.75" stroke-linecap="round"/>
<path d="M5 2.5H7" stroke="#e7e7e7" stroke-width="0.75" stroke-linecap="round"/>
<path d="M5 4H7" stroke="#e7e7e7" stroke-width="0.75" stroke-linecap="round"/>
<path d="M5 5.5H7" stroke="#e7e7e7" stroke-width="0.75" stroke-linecap="round"/>
<path d="M5 7H7" stroke="#e7e7e7" stroke-width="0.75" stroke-linecap="round"/>
</svg>
