<svg viewBox="0 0 16 16" fill="none" xmlns="http://www.w3.org/2000/svg">
    <path d="M14.6667 14.6667H1.33337" stroke-linecap="round" />
    <path
        d="M11.3333 14.6667V4C11.3333 2.74292 11.3333 2.11438 10.9428 1.72386C10.5522 1.33333 9.92369 1.33333 8.66663 1.33333H7.33329C6.07621 1.33333 5.44767 1.33333 5.05715 1.72386C4.66663 2.11438 4.66663 2.74292 4.66663 4V14.6667"
    />
    <path
        d="M14 14.6667V7.66667C14 6.73033 14 6.26221 13.7752 5.92591C13.678 5.78032 13.553 5.65532 13.4074 5.55804C13.0711 5.33333 12.603 5.33333 11.6666 5.33333"
    />
    <path
        d="M2 14.6667V7.66667C2 6.73033 2 6.26221 2.22471 5.92591C2.32199 5.78032 2.44699 5.65532 2.59257 5.55804C2.92887 5.33333 3.39703 5.33333 4.33333 5.33333"
    />
    <path d="M8 14.6667V12.6667" stroke-linecap="round" />
    <path d="M6.66663 3.33333H9.33329" stroke-linecap="round" />
    <path d="M6.66663 5.33333H9.33329" stroke-linecap="round" />
    <path d="M6.66663 7.33333H9.33329" stroke-linecap="round" />
    <path d="M6.66663 9.33334H9.33329" stroke-linecap="round" />
</svg>