<svg width="24" height="24" viewBox="0 0 24 24" fill="none" xmlns="http://www.w3.org/2000/svg">
<path d="M2.68931 6.70457C2.52614 6.32385 2.08523 6.14748 1.70451 6.31065C1.32379 6.47382 1.14742 6.91473 1.31059 7.29545L2.68931 6.70457ZM9.0414 13.7377C9.26731 13.3906 9.16899 12.926 8.8218 12.7001C8.47461 12.4742 8.01003 12.5725 7.78412 12.9197L9.0414 13.7377ZM6.37131 15.091C6.1454 15.4381 6.24372 15.9027 6.59091 16.1286C6.9381 16.3545 7.40268 16.2562 7.62859 15.909L6.37131 15.091ZM22.6894 7.29545C22.8524 6.91473 22.6762 6.47382 22.2954 6.31065C21.9147 6.14748 21.4738 6.32385 21.3106 6.70457L22.6894 7.29545ZM19.9697 13.1592C20.2626 13.4521 20.7374 13.4521 21.0303 13.1592C21.3232 12.8663 21.3232 12.3914 21.0303 12.0985L19.9697 13.1592ZM11.25 16.5C11.25 16.9142 11.5858 17.25 12 17.25C12.4142 17.25 12.75 16.9142 12.75 16.5H11.25ZM16.3714 15.909C16.5973 16.2562 17.0619 16.3545 17.409 16.1286C17.7562 15.9027 17.8545 15.4381 17.6285 15.091L16.3714 15.909ZM5.53028 11.6592C5.82317 11.3663 5.82317 10.8914 5.53028 10.5985C5.23739 10.3056 4.76251 10.3056 4.46962 10.5985L5.53028 11.6592ZM2.96962 12.0985C2.67673 12.3914 2.67673 12.8663 2.96962 13.1592C3.26251 13.4521 3.73739 13.4521 4.03028 13.1592L2.96962 12.0985ZM12 13.25C8.77606 13.25 6.46128 11.6446 4.92455 9.98967C4.1564 9.16244 3.5932 8.33285 3.22254 7.71015C3.03764 7.39951 2.90182 7.14233 2.81335 6.96538C2.76914 6.87697 2.73684 6.80876 2.71622 6.76412C2.70592 6.74181 2.69854 6.72541 2.69406 6.71534C2.69182 6.71031 2.6901 6.70638 2.68931 6.70457C2.68929 6.70453 2.68934 6.70465 2.68931 6.70457C2.68941 6.7048 2.68931 6.70457 1.99995 7.00001C1.31059 7.29545 1.31044 7.29511 1.31059 7.29545C1.31065 7.2956 1.31109 7.29661 1.31122 7.29691C1.31147 7.2975 1.31178 7.29821 1.31213 7.29901C1.31282 7.30063 1.31371 7.30267 1.31478 7.30513C1.31693 7.31004 1.31983 7.31663 1.32348 7.32484C1.33078 7.34126 1.3411 7.36416 1.35448 7.39312C1.38122 7.45103 1.42021 7.53321 1.47171 7.6362C1.57464 7.84207 1.72789 8.13176 1.93361 8.47737C2.3442 9.16717 2.9685 10.0876 3.82535 11.0103C5.53862 12.8554 8.22384 14.75 12 14.75V13.25ZM15.3125 12.6308C14.3421 13.0128 13.2417 13.25 12 13.25V14.75C13.4382 14.75 14.7246 14.4742 15.8619 14.0266L15.3125 12.6308ZM7.78412 12.9197L6.37131 15.091L7.62859 15.909L9.0414 13.7377L7.78412 12.9197ZM22 7.00001C21.3106 6.70457 21.3105 6.70471 21.3106 6.70457C21.3106 6.70441 21.3111 6.7035 21.3111 6.70361C21.311 6.70381 21.3107 6.70453 21.3101 6.70577C21.309 6.70824 21.3069 6.71276 21.3041 6.71925C21.2983 6.73224 21.2889 6.7531 21.2758 6.78126C21.2495 6.83758 21.2085 6.92296 21.1525 7.03268C21.0406 7.25228 20.869 7.56832 20.6354 7.94321C20.1669 8.69517 19.4563 9.67198 18.4867 10.582L19.5133 11.6757C20.6023 10.6535 21.3917 9.56588 21.9085 8.73647C22.1676 8.32069 22.3599 7.96681 22.4888 7.71416C22.5532 7.58776 22.6019 7.48644 22.6353 7.41508C22.6518 7.3794 22.6646 7.35119 22.6737 7.33105C22.6782 7.32098 22.6818 7.31293 22.6844 7.30697C22.6857 7.30399 22.6866 7.30154 22.6875 7.29961C22.688 7.29865 22.6883 7.29782 22.6886 7.29713C22.6888 7.29678 22.6893 7.29573 22.6894 7.29545C22.6894 7.29552 22.6894 7.29531 22.6894 7.29545C22.6894 7.29528 22.6894 7.29545 22 7.00001ZM18.4867 10.582C17.6277 11.3882 16.5739 12.1343 15.3125 12.6308L15.8619 14.0266C17.3355 13.4466 18.5466 12.583 19.5133 11.6757L18.4867 10.582ZM18.4697 11.6592L19.9697 13.1592L21.0303 12.0985L19.5303 10.5985L18.4697 11.6592ZM11.25 14V16.5H12.75V14H11.25ZM14.9586 13.7377L16.3714 15.909L17.6285 15.091L16.2157 12.9197L14.9586 13.7377ZM4.46962 10.5985L2.96962 12.0985L4.03028 13.1592L5.53028 11.6592L4.46962 10.5985Z" fill="#F6F6F6"/>
</svg>
