<svg viewBox="0 0 14 14" fill="none" xmlns="http://www.w3.org/2000/svg">
    <path
        d="M1.75 5.83342C1.75 3.63352 1.75 2.53359 2.43342 1.85016C3.11684 1.16675 4.21678 1.16675 6.41667 1.16675H7.58333C9.7832 1.16675 10.8832 1.16675 11.5666 1.85016C12.25 2.53359 12.25 3.63352 12.25 5.83342V8.16675C12.25 10.3666 12.25 11.4666 11.5666 12.15C10.8832 12.8334 9.7832 12.8334 7.58333 12.8334H6.41667C4.21678 12.8334 3.11684 12.8334 2.43342 12.15C1.75 11.4666 1.75 10.3666 1.75 8.16675V5.83342Z"
        stroke-width="0.875" />
    <path d="M4.6665 7H9.33317" stroke-width="0.875" stroke-linecap="round" />
    <path d="M4.6665 4.66675H9.33317" stroke-width="0.875" stroke-linecap="round" />
    <path d="M4.6665 9.33325H7.58317" stroke-width="0.875" stroke-linecap="round" />
</svg>