<svg width="49" height="48" viewBox="0 0 49 48" fill="none" xmlns="http://www.w3.org/2000/svg">
<path d="M13.0724 38C8.33854 38 4.50098 34.2076 4.50098 29.5294C4.50098 24.8512 8.33854 21.0588 13.0724 21.0588C13.6406 21.0588 14.196 21.1134 14.7333 21.2178M14.7333 21.2178C14.2751 19.9956 14.0248 18.6737 14.0248 17.2941C14.0248 11.0565 19.1415 6 25.4534 6C31.3328 6 36.1752 10.3874 36.8112 16.03M14.7333 21.2178C15.8622 21.4368 16.9115 21.8748 17.8343 22.4852M29.263 16.0544C30.4544 15.6382 31.7366 15.4118 33.0724 15.4118C34.3818 15.4118 35.6396 15.6294 36.8112 16.03M36.8112 16.03C41.287 17.5605 44.501 21.7622 44.501 26.7058C44.501 32.1198 40.6462 36.6442 35.501 37.7444" stroke="#E7E7E7" stroke-width="3" stroke-linecap="round"/>
<path d="M24.499 32V44M24.499 32L28.499 36M24.499 32L20.499 36" stroke="#E7E7E7" stroke-width="3" stroke-linecap="round" stroke-linejoin="round"/>
</svg>
