<svg viewBox="0 0 47 46" fill="none" xmlns="http://www.w3.org/2000/svg">
    <path d="M35.0013 19.167H25.418" stroke-width="2.875" stroke-linecap="round" />
    <path
        d="M4.33203 13.32C4.33203 11.6285 4.33203 10.7827 4.46495 10.0783C5.05009 6.97694 7.47596 4.55107 10.5773 3.96593C11.2818 3.83301 12.1275 3.83301 13.8191 3.83301C14.5602 3.83301 14.9307 3.83301 15.2869 3.86632C16.8223 4.0099 18.2787 4.61317 19.4659 5.59732C19.7413 5.82559 20.0033 6.08764 20.5273 6.6117L21.582 7.66634C23.1456 9.22992 23.9275 10.0117 24.8636 10.5326C25.3778 10.8187 25.9235 11.0447 26.4895 11.206C27.5197 11.4997 28.6252 11.4997 30.8365 11.4997H31.5527C36.5982 11.4997 39.1207 11.4997 40.7606 12.9745C40.9114 13.1101 41.055 13.2537 41.1905 13.4045C42.6654 15.0443 42.6654 17.567 42.6654 22.6123V26.833C42.6654 34.0611 42.6654 37.6754 40.4198 39.9208C38.1744 42.1663 34.5602 42.1663 27.332 42.1663H19.6654C12.4372 42.1663 8.82307 42.1663 6.57754 39.9208C4.33203 37.6754 4.33203 34.0611 4.33203 26.833V13.32Z"
        stroke-width="2.875" />
</svg>