<svg viewBox="0 0 16 16" fill="none" xmlns="http://www.w3.org/2000/svg">
    <path
        d="M7.33337 11.3333H5.33337C3.44775 11.3333 2.50495 11.3333 1.91916 10.7475C1.33337 10.1617 1.33337 9.21893 1.33337 7.33333V6.66667C1.33337 4.15251 1.33337 2.89543 2.11442 2.11438C2.89547 1.33333 4.15255 1.33333 6.66671 1.33333H10.3334C11.8898 1.33333 12.668 1.33333 13.2571 1.64821C13.7222 1.89683 14.1032 2.2778 14.3518 2.74294C14.6667 3.33203 14.6667 4.11025 14.6667 5.66667"
        stroke-linecap="round" />
    <path
        d="M9.33337 10C9.33337 8.74293 9.33337 8.1144 9.72391 7.72387C10.1144 7.33333 10.743 7.33333 12 7.33333C13.2571 7.33333 13.8856 7.33333 14.2762 7.72387C14.6667 8.1144 14.6667 8.74293 14.6667 10V12C14.6667 13.2571 14.6667 13.8856 14.2762 14.2761C13.8856 14.6667 13.2571 14.6667 12 14.6667C10.743 14.6667 10.1144 14.6667 9.72391 14.2761C9.33337 13.8856 9.33337 13.2571 9.33337 12V10Z"
    />
    <path d="M12.6667 13.3333H11.3334" stroke-linecap="round" />
    <path d="M7.33337 14.6667H5.33337" stroke-linecap="round" />
    <path d="M7.33337 14.6667V11.3333" stroke-linecap="round" />
    <path d="M7.33337 8.66667H1.33337" stroke-linecap="round" />
</svg>