<svg width="23" height="23" viewBox="0 0 23 23" fill="none" xmlns="http://www.w3.org/2000/svg">
<path d="M1.91675 15.3333C1.91675 12.6228 1.91675 11.2675 2.75882 10.4254C3.60088 9.58331 4.95617 9.58331 7.66675 9.58331H15.3334C18.044 9.58331 19.3992 9.58331 20.2413 10.4254C21.0834 11.2675 21.0834 12.6228 21.0834 15.3333C21.0834 18.0439 21.0834 19.3991 20.2413 20.2412C19.3992 21.0833 18.044 21.0833 15.3334 21.0833H7.66675C4.95617 21.0833 3.60088 21.0833 2.75882 20.2412C1.91675 19.3991 1.91675 18.0439 1.91675 15.3333Z" stroke="#E7E7E7" stroke-width="1.4375"/>
<path d="M11.5 13.4167V17.25" stroke="#E7E7E7" stroke-width="1.4375" stroke-linecap="round"/>
<path d="M5.75 9.58335V7.66669C5.75 4.49105 8.32436 1.91669 11.5 1.91669C14.6756 1.91669 17.25 4.49105 17.25 7.66669V9.58335" stroke="#E7E7E7" stroke-width="1.4375" stroke-linecap="round"/>
</svg>
