<svg width="24" height="24" viewBox="0 0 24 24" fill="none" xmlns="http://www.w3.org/2000/svg">
<path d="M10.0376 5.31641L10.6866 6.47934C11.2723 7.52882 11.0372 8.90556 10.1147 9.82804C10.1147 9.82804 8.99588 10.947 11.0245 12.9757C13.0525 15.0037 14.1722 13.8855 14.1722 13.8855C15.0947 12.963 16.4714 12.7279 17.5209 13.3136L18.6838 13.9626C20.2686 14.847 20.4557 17.0694 19.0628 18.4624C18.2258 19.2994 17.2004 19.9507 16.0669 19.9936C14.1588 20.066 10.9183 19.5831 7.6677 16.3325C4.41713 13.0819 3.93421 9.84146 4.00655 7.93333C4.04952 6.79984 4.7008 5.77447 5.53781 4.93747C6.93076 3.54452 9.15317 3.73168 10.0376 5.31641Z" stroke="#F6F6F6" stroke-width="1.5" stroke-linecap="round"/>
</svg>
