<svg viewBox="0 0 16 16" fill="none" xmlns="http://www.w3.org/2000/svg">
    <path
        d="M12 7.99993H11.4657C10.9126 7.99993 10.6361 7.99993 10.4068 8.12973C10.1776 8.25953 10.0353 8.49666 9.75073 8.97093L9.73013 9.00526C9.46507 9.44706 9.33247 9.668 9.13967 9.66433C8.9468 9.66073 8.8226 9.435 8.57433 8.98353L7.44947 6.93833C7.21793 6.51737 7.1022 6.30689 6.91727 6.29691C6.7324 6.28692 6.59467 6.48372 6.31917 6.87726L6.13049 7.14686C5.83787 7.56486 5.69156 7.77386 5.47449 7.88686C5.25741 7.99993 5.00228 7.99993 4.49202 7.99993H4"
        stroke-linecap="round" />
    <path
        d="M8.00004 3.66584L7.63397 4.00644C7.72857 4.1081 7.86117 4.16584 8.00004 4.16584C8.13891 4.16584 8.27151 4.1081 8.36611 4.00644L8.00004 3.66584ZM6.29051 12.5263C5.32394 11.7381 4.19533 10.7045 3.31258 9.5732C2.42034 8.42966 1.83337 7.25473 1.83337 6.17362H0.833374C0.833374 7.5908 1.58621 8.9862 2.52417 10.1883C3.47161 11.4026 4.66359 12.4899 5.65854 13.3013L6.29051 12.5263ZM1.83337 6.17362C1.83337 4.35371 2.67197 3.13636 3.73381 2.6946C4.78202 2.25852 6.23527 2.50319 7.63397 4.00644L8.36611 3.32524C6.76491 1.6044 4.88483 1.13266 3.34969 1.77132C1.82816 2.40432 0.833374 4.0529 0.833374 6.17362H1.83337ZM10.3416 13.3013C11.3365 12.49 12.5284 11.4026 13.4759 10.1883C14.4138 8.98626 15.1667 7.5908 15.1667 6.1736H14.1667C14.1667 7.25473 13.5797 8.42966 12.6875 9.5732C11.8048 10.7045 10.6762 11.7381 9.70957 12.5263L10.3416 13.3013ZM15.1667 6.1736C15.1667 4.05284 14.1719 2.40426 12.6504 1.77127C11.1152 1.13262 9.23517 1.60441 7.63397 3.32524L8.36611 4.00644C9.76484 2.50319 11.218 2.25849 12.2663 2.69456C13.3281 3.13629 14.1667 4.35363 14.1667 6.1736H15.1667ZM5.65854 13.3013C6.50584 13.9923 7.09404 14.5 8.00004 14.5V13.5C7.51904 13.5 7.21917 13.2836 6.29051 12.5263L5.65854 13.3013ZM9.70957 12.5263C8.78091 13.2836 8.48111 13.5 8.00004 13.5V14.5C8.90604 14.5 9.49424 13.9923 10.3416 13.3013L9.70957 12.5263Z"
    />
</svg>