<svg width="12" height="12" viewBox="0 0 12 12" fill="none" xmlns="http://www.w3.org/2000/svg">
<path d="M6 5C7.10457 5 8 4.10457 8 3C8 1.89543 7.10457 1 6 1C4.89543 1 4 1.89543 4 3C4 4.10457 4.89543 5 6 5Z" stroke="#888888" stroke-width="0.75"/>
<path d="M9 4.5C9.82845 4.5 10.5 3.94036 10.5 3.25C10.5 2.55964 9.82845 2 9 2" stroke="#888888" stroke-width="0.75" stroke-linecap="round"/>
<path d="M3 4.5C2.17158 4.5 1.5 3.94036 1.5 3.25C1.5 2.55964 2.17158 2 3 2" stroke="#888888" stroke-width="0.75" stroke-linecap="round"/>
<path d="M6 10.5C7.65685 10.5 9 9.60457 9 8.5C9 7.39543 7.65685 6.5 6 6.5C4.34315 6.5 3 7.39543 3 8.5C3 9.60457 4.34315 10.5 6 10.5Z" stroke="#888888" stroke-width="0.75"/>
<path d="M10 9.5C10.8771 9.30765 11.5 8.82055 11.5 8.25C11.5 7.67945 10.8771 7.19235 10 7" stroke="#888888" stroke-width="0.75" stroke-linecap="round"/>
<path d="M2 9.5C1.12287 9.30765 0.5 8.82055 0.5 8.25C0.5 7.67945 1.12287 7.19235 2 7" stroke="#888888" stroke-width="0.75" stroke-linecap="round"/>
</svg>
