<svg viewBox="0 0 12 12" fill="none" xmlns="http://www.w3.org/2000/svg">
    <path
        d="M1 8.5C1 7.5572 1 7.0858 1.29289 6.7929C1.58578 6.5 2.05719 6.5 3 6.5H9C9.9428 6.5 10.4142 6.5 10.7071 6.7929C11 7.0858 11 7.5572 11 8.5C11 9.4428 11 9.9142 10.7071 10.2071C10.4142 10.5 9.9428 10.5 9 10.5H3C2.05719 10.5 1.58578 10.5 1.29289 10.2071C1 9.9142 1 9.4428 1 8.5Z"
        stroke-width="0.75" />
    <path
        d="M1 3C1 2.05719 1 1.58578 1.29289 1.29289C1.58578 1 2.05719 1 3 1H9C9.9428 1 10.4142 1 10.7071 1.29289C11 1.58578 11 2.05719 11 3C11 3.94281 11 4.41422 10.7071 4.70711C10.4142 5 9.9428 5 9 5H3C2.05719 5 1.58578 5 1.29289 4.70711C1 4.41422 1 3.94281 1 3Z"
        stroke-width="0.75" />
    <path d="M5.5 3H9" stroke-width="0.75" stroke-linecap="round" />
    <path d="M3 3H4" stroke-width="0.75" stroke-linecap="round" />
    <path d="M5.5 8.5H9" stroke-width="0.75" stroke-linecap="round" />
    <path d="M3 8.5H4" stroke-width="0.75" stroke-linecap="round" />
</svg>