<svg viewBox="0 0 14 14" fill="none" xmlns="http://www.w3.org/2000/svg">
    <path
        d="M1.91031 8.92249C1.41452 8.27837 1.16663 7.95631 1.16663 7C1.16663 6.04368 1.41452 5.72164 1.91031 5.07752C2.90027 3.79141 4.56052 2.33333 6.99996 2.33333C9.4394 2.33333 11.0996 3.79141 12.0896 5.07752C12.5854 5.72164 12.8333 6.04368 12.8333 7C12.8333 7.95631 12.5854 8.27837 12.0896 8.92249C11.0996 10.2086 9.4394 11.6667 6.99996 11.6667C4.56052 11.6667 2.90027 10.2086 1.91031 8.92249Z"
        stroke-width="0.875" />
    <path
        d="M8.75 7C8.75 7.96653 7.96653 8.75 7 8.75C6.03348 8.75 5.25 7.96653 5.25 7C5.25 6.03348 6.03348 5.25 7 5.25C7.96653 5.25 8.75 6.03348 8.75 7Z"
        stroke-width="0.875" />
</svg>