<svg viewBox="28.55673925775657 9.39286 1609.1738663484489 974" version="1.1" xmlns="http://www.w3.org/2000/svg" id="_x2014_ÎÓÈ_x5F_1" style="max-height: 500px" width="1609.1738663484489" height="974">
  
  <defs>
    <style>
      .st0, .st1, .st2, .st3 {
        fill: #bf272d;
      }

      .st0, .st3 {
        display: none;
      }

      .st1, .st3 {
        fill-rule: evenodd;
      }
    </style>
  </defs>
  <path d="M2160.21,516.14c-3.28,2.18-7.01,2.7-10.51,1.47-.9-.32-1.83-.86-2.94-1.69-.38-.29-.79-.43-1.2-.43-.08,0-.17,0-.25.02-1.23.17-2.26,1.7-2.4,3.57-.11,1.5.32,2.99,1.14,3.9.32.36.86.79,1.56.82,1,.04,1.93-.79,2.41-2.16.26-.75.93-1.13,1.58-.91,1.21.41,2.45.64,3.68.68,2.02.07,4.02-.38,5.94-1.31,1.08-.52,1.57-2.42,1.01-3.9,0-.02-.01-.03-.02-.04Z" class="st0"/>
  <path d="M2157.85,525.88h-7.56l1.54-9.48c-1.01-.71-1.68-1.88-1.68-3.21,0-2.16,1.75-3.92,3.92-3.92s3.92,1.75,3.92,3.92c0,1.33-.67,2.5-1.69,3.21l1.55,9.48Z" class="st3"/>
  <g>
    <path d="M96.02,186.85l-2.59-9.84c1.28-.43,2.17-1.6,2.17-3.1,0-2.06-1.67-3.94-3.73-4.19s-3.73,1.2-3.73,3.26c0,1.5.89,2.9,2.17,3.65l-2.59,9.18,8.3,1.04Z" class="st1"/>
    <path d="M183.74,324.82" class="st2"/>
    <polygon points="76.37 299.67 76.37 34.81 177.79 11.06 28.11 11.06 28.11 324.83 28.11 984.94 1641.03 984.94 183.74 324.82 76.37 299.67" class="st2"/>
  </g>
</svg>