<?xml version="1.0" encoding="UTF-8"?>
<svg id="Layer_1" xmlns="http://www.w3.org/2000/svg" version="1.1" viewBox="0 0 287.5 110.35">
  <!-- Generator: Adobe Illustrator 29.3.0, SVG Export Plug-In . SVG Version: 2.1.0 Build 146)  -->
  <defs>
    <style>
      .st0 {
        fill: #bf282d;
      }

      .st1 {
        fill: #fff;
      }
    </style>
  </defs>
  <g>
    <path class="st1" d="M32.89,58.17l-9.21-13.31h-10.17v13.31H2.45V10.4h20.68c4.23,0,7.9.71,11.02,2.12s5.52,3.41,7.2,6c1.68,2.59,2.52,5.66,2.52,9.21s-.85,6.61-2.56,9.18-4.13,4.54-7.27,5.9l10.71,15.35h-11.87.01ZM30.1,21.56c-1.73-1.43-4.25-2.15-7.57-2.15h-9.01v16.65h9.01c3.32,0,5.85-.73,7.57-2.18,1.73-1.46,2.59-3.5,2.59-6.14s-.87-4.74-2.59-6.18Z"/>
    <path class="st1" d="M88.58,49.3v8.87h-36.99V10.4h36.1v8.87h-25.11v10.37h22.18v8.6h-22.18v11.05h26Z"/>
    <path class="st1" d="M96.36,10.41h21.7c5.19,0,9.77.99,13.75,2.97s7.07,4.77,9.28,8.36,3.31,7.78,3.31,12.56-1.1,8.96-3.31,12.56c-2.21,3.59-5.3,6.38-9.28,8.36-3.98,1.98-8.56,2.97-13.75,2.97h-21.7V10.42h0ZM117.51,49.1c4.78,0,8.59-1.33,11.43-3.99,2.84-2.66,4.27-6.27,4.27-10.82s-1.42-8.16-4.27-10.82c-2.84-2.66-6.65-3.99-11.43-3.99h-10.1v29.62h10.1Z"/>
    <path class="st1" d="M168.76,39.41l-6.42,6.69v12.08h-10.99V10.41h10.99v22.32l21.16-22.32h12.28l-19.79,21.29,20.95,26.48h-12.9l-15.29-18.77h0Z"/>
    <path class="st1" d="M266.48,41.25v16.92h-11.05v-17.06l-18.49-30.71h11.74l12.76,21.22,12.76-21.22h10.85l-18.56,30.85h-.01Z"/>
  </g>
  <g>
    <path class="st1" d="M15.24,74.92c0,2.6-1.13,4.24-3.4,4.92l4.13,5.73h-3.38l-3.77-5.3h-3.49v5.3h-2.66v-15.76h5.86c2.4,0,4.13.41,5.16,1.22,1.04.81,1.56,2.11,1.56,3.9h-.01ZM11.7,77.15c.54-.47.81-1.21.81-2.24s-.28-1.74-.83-2.12c-.56-.38-1.55-.58-2.98-.58h-3.38v5.64h3.31c1.5,0,2.52-.23,3.07-.7h0Z"/>
    <path class="st1" d="M34.68,69.8v2.5h-8.41v4.17h7.55v2.37h-7.55v4.22h8.68v2.5h-11.34v-15.76h11.07Z"/>
    <path class="st1" d="M47.66,71.87c-.77,0-1.41.16-1.91.47-.5.32-.74.79-.74,1.43s.25,1.13.74,1.47c.5.34,1.55.7,3.17,1.09,1.62.39,2.83.94,3.65,1.65s1.23,1.75,1.23,3.12-.52,2.49-1.56,3.35c-1.04.86-2.4,1.29-4.08,1.29-2.47,0-4.65-.85-6.56-2.55l1.67-2.01c1.59,1.38,3.25,2.07,4.96,2.07.86,0,1.54-.18,2.04-.55s.76-.86.76-1.47-.24-1.08-.71-1.42c-.47-.34-1.29-.65-2.45-.92s-2.04-.53-2.64-.77c-.6-.23-1.13-.54-1.6-.91-.93-.71-1.4-1.79-1.4-3.25s.53-2.58,1.59-3.37c1.06-.79,2.37-1.18,3.93-1.18,1.01,0,2.01.17,3,.5s1.85.8,2.57,1.4l-1.42,2.01c-.47-.42-1.1-.77-1.89-1.04-.8-.27-1.58-.41-2.36-.41h.01Z"/>
    <path class="st1" d="M72.7,69.8v2.5h-8.41v4.17h7.55v2.37h-7.55v4.22h8.68v2.5h-11.34v-15.76h11.07Z"/>
    <path class="st1" d="M83.14,81.97l-1.58,3.59h-2.84l6.94-15.76h2.84l6.94,15.76h-2.84l-1.58-3.59h-7.89.01ZM89.94,79.52l-2.86-6.49-2.86,6.49h5.73-.01Z"/>
    <path class="st1" d="M114.75,74.92c0,2.6-1.13,4.24-3.4,4.92l4.13,5.73h-3.38l-3.77-5.3h-3.49v5.3h-2.66v-15.76h5.86c2.4,0,4.13.41,5.16,1.22,1.04.81,1.56,2.11,1.56,3.9h0ZM111.21,77.15c.54-.47.81-1.21.81-2.24s-.28-1.74-.83-2.12c-.56-.38-1.55-.58-2.98-.58h-3.38v5.64h3.31c1.5,0,2.52-.23,3.07-.7h0Z"/>
    <path class="st1" d="M130.31,83.15c.92,0,1.71-.15,2.37-.46s1.35-.8,2.07-1.48l1.71,1.76c-1.67,1.85-3.69,2.77-6.08,2.77s-4.36-.77-5.93-2.3-2.36-3.47-2.36-5.82.8-4.3,2.4-5.86c1.6-1.56,3.62-2.34,6.07-2.34s4.48.9,6.12,2.71l-1.69,1.85c-.75-.72-1.46-1.22-2.13-1.51s-1.45-.43-2.36-.43c-1.59,0-2.93.52-4.01,1.55s-1.62,2.35-1.62,3.95.54,2.94,1.61,4.01c1.07,1.08,2.35,1.61,3.82,1.61h0Z"/>
    <path class="st1" d="M144.24,85.56v-15.76h2.66v6.83h7.82v-6.83h2.66v15.76h-2.66v-6.45h-7.82v6.45h-2.66Z"/>
  </g>
  <g>
    <rect class="st0" x="213.99" y="46.66" width="14.7" height="7.9"/>
    <path class="st0" d="M228.69,14.88v-7.9h-18.64V1.65h-8.37v77.83h-1.34c-1.71-2.02-4.24-3.33-7.09-3.33-5.15,0-9.34,4.19-9.34,9.34s4.19,9.34,9.34,9.34c2.03,0,3.89-.67,5.42-1.77v.47c-1.29,1.6-2.1,3.61-2.1,5.82,0,5.15,4.19,9.34,9.34,9.34s9.34-4.19,9.34-9.34c0-2.27-.85-4.32-2.2-5.94v-.35c1.53,1.1,3.4,1.77,5.42,1.77,5.15,0,9.34-4.19,9.34-9.34s-4.19-9.34-9.34-9.34c-2.85,0-5.38,1.31-7.09,3.33h-1.34V30.81h18.64v-7.9h-12.89v-8.02h12.9ZM193.25,90.13c-2.56,0-4.64-2.08-4.64-4.64s2.08-4.64,4.64-4.64,4.64,2.08,4.64,4.64-2.08,4.64-4.64,4.64ZM205.92,104c-2.56,0-4.64-2.08-4.64-4.64s2.08-4.64,4.64-4.64,4.64,2.08,4.64,4.64-2.08,4.64-4.64,4.64ZM218.49,80.84c2.56,0,4.64,2.08,4.64,4.64s-2.08,4.64-4.64,4.64-4.64-2.08-4.64-4.64,2.08-4.64,4.64-4.64Z"/>
  </g>
</svg>