<?xml version="1.0" encoding="UTF-8"?>
<svg id="Layer_1" xmlns="http://www.w3.org/2000/svg" version="1.1" viewBox="0 0 1200 1200">
  <!-- Generator: Adobe Illustrator 29.3.0, SVG Export Plug-In . SVG Version: 2.1.0 Build 146)  -->
  <defs>
    <style>
      .st0 {
        fill: #fff;
      }
    </style>
  </defs>
  <path class="st0" d="M1086.26,333.34c-15.28-37.93-37.41-72.11-65.76-101.58-24.75-25.52-53.93-45.44-86.73-59.18-32.81-13.76-67.49-20.61-103.04-20.37-83.31.41-163.08,31.54-224.64,87.65l-6.1,5.56-6.07-5.59c-71.15-65.54-138.02-98.78-198.74-98.78h-.79c-40.16,0-79.27,7.92-116.26,23.53-37.24,15.72-70.37,38.41-98.48,67.45-30.77,31.81-54.13,68.99-69.44,110.51-15.13,41.07-21.52,84.03-18.98,127.7l.09,1.46c.24,4.03,2.03,7.71,5.04,10.37,3,2.67,6.88,4,10.89,3.76,4.01-.24,7.68-2.03,10.35-5.04,2.63-2.96,4-6.93,3.76-10.88-2.56-39.95,3.13-79.29,16.94-116.9,13.8-37.61,34.91-71.3,62.73-100.13,25.36-26.15,55.22-46.57,88.77-60.7,33.27-14.02,68.49-21.13,104.68-21.13.25,0,.49,0,.73,0,55.84,0,122.36,36.03,192.37,104.19,3.39,3.33,7.85,5.16,12.56,5.16s9.17-1.82,12.53-5.13c28.16-28.78,61.27-51.54,98.37-67.57,37.1-16.04,76.39-24.57,116.8-25.36h1.98c31.56-.24,62.39,5.79,91.59,17.98,29.19,12.19,55.17,29.86,77.23,52.54,51.55,53.9,79.92,124.6,79.92,199.12s-28.36,145.21-79.87,199.06l-.19.19-385.75,372.07c-7.57,7.46-19.95,7.44-27.57-.07l-263.93-254.93c-2.77-2.67-6.58-4.21-10.46-4.21-1.39,0-2.78.19-4.11.58-5.14,1.48-9.14,5.62-10.43,10.81-1.29,5.19.29,10.72,4.14,14.43l264,255c9.33,9.08,21.62,14.08,34.61,14.08s25.27-4.99,34.58-14.06l387.04-372.52c28.29-29.44,50.38-63.58,65.64-101.46,15.28-37.93,23.03-77.9,23.03-118.8s-7.75-80.87-23.03-118.8Z"/>
  <path class="st0" d="M373.2,675.66c3.6,1.01,7.42.64,10.76-1.03,3.34-1.67,5.93-4.52,7.28-8l80.05-206.32,71.45,283.01c.75,2.76,2.34,5.29,4.56,7.23,2.18,1.92,4.84,3.14,7.71,3.56h2.18c2.73,0,5.41-.75,7.75-2.16,2.34-1.42,4.25-3.44,5.51-5.86l87.73-168.09,38.74,69.11c1.27,2.2,3.17,4.09,5.46,5.41,2.26,1.3,4.88,1.99,7.56,1.99h111.49c5.34,0,10.32-2.87,12.99-7.5,2.67-4.63,2.67-10.38,0-15-2.67-4.63-7.65-7.5-12.99-7.5h-102.47l-48.06-85.72c-1.27-2.2-3.17-4.09-5.46-5.41-2.31-1.32-4.9-2-7.52-1.99-2.92.03-5.74.8-8.17,2.35-2.43,1.55-4.35,3.74-5.56,6.35l-.2.41-83,157.84-72.06-290.06c-1.04-4.06-3.81-7.53-7.58-9.5-3.77-1.96-8.22-2.23-12.2-.74-3.98,1.5-7.15,4.63-8.7,8.59l-86.56,221.91-57.5-92.14c-2.75-4.4-7.48-7.03-12.67-7.05-5.1.08-9.96,2.96-12.58,7.5l-.1.17-55.11,89.29h-90.1c-5.34,0-10.32,2.87-12.99,7.5-2.67,4.63-2.67,10.38,0,15,2.67,4.63,7.65,7.5,12.99,7.5l98.32-.61c5.19-.09,10.07-2.96,12.69-7.5l.09-.15,46.76-75.87,61.08,97.33c1.98,2.98,4.98,5.16,8.44,6.13Z"/>
</svg>