<?xml version="1.0" encoding="UTF-8"?>
<svg id="Layer_1" xmlns="http://www.w3.org/2000/svg" version="1.1" viewBox="0 0 1200 1200">
  <!-- Generator: Adobe Illustrator 29.3.0, SVG Export Plug-In . SVG Version: 2.1.0 Build 146)  -->
  <defs>
    <style>
      .st0 {
        fill: none;
      }

      .st1 {
        fill: #fff;
      }
    </style>
  </defs>
  <path class="st0" d="M600,697c25.91,0,50.27-10.09,68.59-28.41,18.32-18.32,28.41-42.68,28.41-68.59s-10.09-50.27-28.41-68.59c-18.32-18.32-42.68-28.41-68.59-28.41-25.9.03-50.25,10.13-68.56,28.45-18.31,18.31-28.42,42.66-28.45,68.56,0,25.91,10.09,50.26,28.41,68.59,18.32,18.32,42.68,28.41,68.59,28.41ZM600,537c34.74,0,63,28.26,63,63s-28.26,63-63,63-63-28.26-63-63,28.26-63,63-63Z"/>
  <path class="st1" d="M452.34,613.29c7.1,2.81,12.33,8.93,13.98,16.38h0c3.47,15.61,9.59,30.35,18.2,43.82,4.09,6.41,4.75,14.4,1.77,21.39l-3.93,9.21c4.27,4.75,8.81,9.3,13.53,13.56l9.23-3.95c6.99-2.98,14.99-2.32,21.39,1.77,13.47,8.61,28.21,14.74,43.82,18.2,7.47,1.65,13.61,6.89,16.42,14.01l3.54,9.02c6.44.36,12.95.36,19.39,0l3.57-9.04c2.81-7.12,8.95-12.36,16.42-14.01,15.6-3.46,30.35-9.58,43.81-18.2,6.41-4.09,14.4-4.75,21.39-1.77l9.21,3.93c4.75-4.27,9.3-8.81,13.56-13.53l-3.95-9.22c-2.98-6.99-2.32-14.99,1.77-21.4,8.61-13.47,14.74-28.21,18.2-43.81,1.65-7.45,6.88-13.58,13.98-16.4l9.05-3.58c.37-6.44.37-12.94,0-19.38l-9.09-3.6c-7.1-2.81-12.33-8.94-13.98-16.4-3.47-15.6-9.59-30.34-18.2-43.79-4.09-6.4-4.75-14.4-1.77-21.39l3.93-9.21c-4.26-4.74-8.79-9.29-13.53-13.56l-9.22,3.95c-6.99,2.98-14.99,2.32-21.4-1.77-13.47-8.61-28.2-14.74-43.8-18.2-7.45-1.65-13.58-6.88-16.4-13.98l-3.58-9.05c-6.44-.38-12.95-.37-19.4,0l-3.6,9.09c-2.81,7.1-8.94,12.33-16.4,13.98-15.6,3.46-30.33,9.58-43.8,18.2-6.41,4.09-14.41,4.75-21.39,1.77l-9.21-3.93c-4.75,4.27-9.3,8.8-13.56,13.53l3.95,9.23c2.98,6.99,2.32,14.99-1.77,21.4-8.61,13.46-14.74,28.2-18.2,43.8-1.65,7.45-6.88,13.58-13.98,16.4l-9.05,3.58c-.37,6.44-.37,12.94,0,19.38l9.09,3.6ZM527.2,527.2c19.44-19.44,45.3-30.17,72.79-30.2h0c27.51,0,53.38,10.71,72.83,30.17,19.45,19.45,30.17,45.32,30.17,72.83s-10.71,53.38-30.17,72.83-45.32,30.17-72.83,30.17-53.38-10.71-72.83-30.17c-19.45-19.45-30.17-45.32-30.17-72.83.03-27.5,10.76-53.35,30.2-72.8Z"/>
  <path class="st1" d="M600,657c31.43,0,57-25.57,57-57s-25.57-57-57-57-57,25.57-57,57,25.57,57,57,57Z"/>
  <path class="st1" d="M277.65,580.24c.24-4.32-1.36-8.61-4.38-11.75l-.2-.21c-3.26-3.36-7.79-5.28-12.47-5.28-.07,0-.14,0-.2,0-4.22,0-8.23,1.54-11.34,4.36-3.16,2.86-5.1,6.77-5.47,11.02-1.16,20.17-.66,40.7,1.51,60.92,8.81,80.14,44.98,155.75,101.85,212.91,56.87,57.16,132.3,93.72,212.4,102.95,80.1,9.23,161.87-9.23,230.25-51.96,68.37-42.72,120.79-108.13,147.6-184.18,26.81-76.04,27-159.86.54-236.03-26.46-76.17-78.58-141.82-146.75-184.86-68.18-43.05-149.85-61.88-230-53.02-80.14,8.86-155.74,45.07-212.87,101.97-4.34,4.33-10.11,6.72-16.25,6.72s-11.91-2.39-16.25-6.72l-10.52-10.52-.39,78.19,77.57-1.01-14.99-14.99h1.26c-1.87-3.37-2.87-7.18-2.87-11.14,0-6.14,2.39-11.92,6.73-16.26,33.61-33.67,75.08-59.89,119.92-75.82,44.83-15.92,93.55-21.74,140.87-16.8,81.35,8.4,155.84,46.89,209.74,108.4,53.9,61.51,82.3,140.39,79.97,222.13-2.34,81.74-35.2,158.88-92.53,217.21-57.33,58.32-133.89,92.49-215.59,96.23-4.98.23-9.95.34-14.91.34-76.4,0-149.95-26.87-208.56-76.5-62.41-52.84-102.17-126.65-111.96-207.85-2.38-19.34-2.96-39.01-1.71-58.45Z"/>
  <path class="st1" d="M1114.54,386.4c-42.33-102.06-113.28-188.42-205.17-249.74-91.9-61.33-198.89-93.73-309.35-93.65h-.82s-.02,0-.02,0c-109.56.24-215.69,32.4-306.96,93.03-91.51,60.78-162.42,146.41-205.08,247.64-42.67,101.22-54.44,211.78-34.05,319.73,20.39,107.94,71.69,206.58,148.34,285.26,76.64,78.68,173.91,132.54,281.29,155.76,107.37,23.21,218.2,14.34,320.5-25.66,3.11-1.29,5.79-3.49,7.69-6.35,1.9-2.86,2.9-6.18,2.88-9.6-.03-2.68-.69-5.38-1.9-7.78-1.93-3.77-5.19-6.68-9.18-8.17-3.99-1.49-8.36-1.43-12.31.16-60.69,23.88-124.5,35.98-189.68,35.98h-1.55c-120.59,0-238.36-42.03-331.71-118.39-93.56-76.53-158.18-183.96-181.95-302.48-23.77-118.52-5.57-242.56,51.25-349.25,56.82-106.69,149.58-191.02,261.2-237.45,111.6-46.43,236.81-52.77,352.54-17.85,115.73,34.92,216.53,109.45,283.84,209.86,67.3,100.42,97.94,221.98,86.26,342.29-11.68,120.31-65.12,233.71-150.47,319.32-4.34,4.35-10.11,6.75-16.26,6.76-6.15,0-11.92-2.39-16.27-6.74l-10.32-10.33-.44,78.23,77.56-1.01-10.28-10.27c-4.34-4.35-6.74-10.12-6.74-16.26s2.39-11.91,6.73-16.26c78.1-78.16,130.74-176.75,152.25-285.12,21.5-108.37,10.5-219.59-31.83-321.65Z"/>
</svg>