<?xml version="1.0" encoding="UTF-8"?>
<svg id="Layer_1" xmlns="http://www.w3.org/2000/svg" version="1.1" viewBox="0 0 1200 1200">
  <!-- Generator: Adobe Illustrator 29.3.0, SVG Export Plug-In . SVG Version: 2.1.0 Build 146)  -->
  <defs>
    <style>
      .st0 {
        fill: #fff;
      }
    </style>
  </defs>
  <path class="st0" d="M1169.3,1081.2l-150.7-150.7c-21.2-21.1-53.3-22.7-77.4-7.05l-134.4-134.4c78.25-82.55,126.6-193.7,126.6-316.2,0-253.9-206.55-460.45-460.45-460.45S12.5,218.95,12.5,472.85s206.55,460.45,460.45,460.45c122.45,0,233.6-48.35,316.2-126.6l134.4,134.4c-15.65,24.1-14.05,56.2,7.05,77.4l150.7,150.7c12.15,12.1,28.1,18.15,44,18.15s31.95-6.05,44.05-18.15c24.15-24.25,24.15-63.75-.05-88h0ZM37.5,472.9c0-240.1,195.35-435.45,435.45-435.45s435.45,195.35,435.45,435.45-195.35,435.45-435.45,435.45S37.5,713,37.5,472.9ZM1151.6,1151.55c-14.5,14.4-38.1,14.5-52.7,0l-150.7-150.7c-14.45-14.55-14.5-38.2,0-52.7,7.3-7.25,16.8-10.85,26.35-10.85s19.05,3.6,26.3,10.85l150.7,150.7c14.55,14.55,14.55,38.2.05,52.7h0Z"/>
  <path class="st0" d="M267,232.55c7.5-7.6,186.65-184.25,416.3.95,2.35,1.85,5.1,2.75,7.85,2.75,3.65,0,7.3-1.6,9.7-4.65,4.35-5.35,3.5-13.25-1.85-17.6-247.15-199.15-447.85-1.05-449.8.95-4.85,4.95-4.8,12.85.1,17.7,4.95,4.85,12.85,4.8,17.7-.1h0Z"/>
  <path class="st0" d="M664.7,283.4c-51.65-64.8-141.4-97.85-234-86.25-57.45,7.25-105.75,29.45-139.65,64.2-35.2,36.1-57.45,85.2-62.65,138.35-4.75,48.65-.25,190-.05,196,.2,6.75,5.8,12.05,12.5,12.05h.4c6.9-.2,12.3-5.95,12.1-12.9-.05-1.45-4.65-145.75-.05-192.75,4.55-46.8,24.85-91.75,55.65-123.3,37.8-38.75,88.75-52.3,124.86-56.8,84.25-10.5,165.05,19,211.35,77.05,18,22.5,31.6,51.9,40.3,87.25,6.1,24.75,9.2,50.6,9.2,76.8,0,6.9,5.6,12.5,12.5,12.5s12.5-5.6,12.5-12.5c0-28.2-3.3-56.05-9.85-82.75-9.65-38.95-24.85-71.55-45.1-96.95h0Z"/>
  <path class="st0" d="M329.55,596.7c2.6-23.05.55-55.2-1.6-89.15-2.75-43.85-5.6-89.1,1.3-115.85,8.8-33.9,33.45-62.3,69.5-79.9,42.9-20.95,94.55-23.15,134.7-5.85,37.9,16.35,65.7,52.25,72.6,93.6,1.15,6.95,2.1,13.95,3.05,21,3.15,24,6.45,48.85,18.1,71.7,16.7,32.45,44.75,55.55,76.95,63.45,7,1.6,13.5-2.45,15.15-9.2,1.6-6.7-2.5-13.45-9.2-15.1-25.2-6.15-47.3-24.6-60.65-50.55-9.7-19-12.6-40.65-15.6-63.55-.95-7.3-1.9-14.6-3.1-21.8-8.3-49.7-41.8-92.75-87.4-112.5-46.6-20.15-106.3-17.75-155.55,6.35-42.7,20.85-72.1,55-82.75,96.1-7.9,30.55-4.9,77.85-2,123.6,2.1,32.9,4.05,63.95,1.7,84.8-4.55,40.65-51.05,61.05-51.5,61.25-6.3,2.75-9.3,10.05-6.55,16.4,2,4.8,6.6,7.6,11.5,7.6,1.6,0,3.25-.3,4.85-1,2.4-1,60.3-26.1,66.5-81.41h0Z"/>
  <path class="st0" d="M389.25,663.45c3.7-5.8,1.95-13.55-3.9-17.25-5.8-3.5-13.55-1.95-17.25,3.95-39.05,61.95-87.45,83.6-87.9,83.8-6.3,2.75-9.25,10.1-6.5,16.45,2.05,4.7,6.65,7.5,11.45,7.5,1.65,0,3.3-.35,4.9-1.05,2.3-.95,55.75-24.45,99.2-93.4h0Z"/>
  <path class="st0" d="M552.25,796.05c-22.8-2.4-43.15-13.2-60.4-32.05-17.9-19.55-39.05-28.9-61.9-28.75-49.65,1-91.05,49.15-92.8,51.25-4.45,5.2-3.8,13.1,1.45,17.6s13.15,3.8,17.6-1.4c.35-.45,36-41.75,74.3-42.45,15.05,0,29.9,6.45,42.9,20.65,21.55,23.5,47.2,36.95,76.25,40.05.45.05.9.05,1.3.05,6.3,0,11.75-4.8,12.4-11.2.75-6.86-4.2-13-11.1-13.75h0Z"/>
  <path class="st0" d="M690.2,678.8c-.65-.05-86.4,5.15-171.75-91.8-19.45-22.05-30.2-62.4-32.05-119.85-.2-6.85-5.75-12.55-12.9-12.1-6.9.2-12.35,6-12.1,12.9,2.05,64.35,14.55,108.7,38.3,135.6,82.55,93.7,165.3,100.35,187.1,100.35,3.1,0,4.95-.15,5.4-.2,6.85-.55,11.9-6.55,11.45-13.45-.6-6.8-6-12.95-13.45-11.45h0Z"/>
  <path class="st0" d="M709.1,605.1c-74.15-11.75-120.8-72.15-134.1-109.9-2.5-7.15-4.55-16.4-6.85-26.6-9.8-43.75-24.6-109.85-93.15-112.15-30.9-1-57.2,12.3-74.35,37.45-31.3,45.8-28.3,121.05,8.3,206.4,60.95,142.2,223.6,175.7,230.55,177.05.8.15,1.6.25,2.4.25,5.85,0,11.1-4.1,12.25-10.05,1.3-6.8-3.1-13.4-9.8-14.7-1.55-.3-156.75-32.5-212.4-162.4-32.7-76.2-36.65-144.45-10.65-182.5,12.4-18.05,30.45-27.35,52.9-26.5,45.5,1.5,58.4,42.85,69.6,92.65,2.55,11.3,4.85,21.5,7.65,29.4,18.3,52,74.2,113.65,153.75,126.3,6.8,1.15,13.25-3.6,14.3-10.4,1.05-6.8-3.6-13.25-10.4-14.3h0Z"/>
</svg>