<?xml version="1.0" encoding="UTF-8"?>
<svg id="Layer_1" xmlns="http://www.w3.org/2000/svg" version="1.1" viewBox="0 0 1200 1200">
  <!-- Generator: Adobe Illustrator 29.3.0, SVG Export Plug-In . SVG Version: 2.1.0 Build 146)  -->
  <defs>
    <style>
      .st0 {
        fill: #fff;
      }
    </style>
  </defs>
  <path class="st0" d="M1094,634.26c-.23-.47-.47-.89-.75-1.27l-134.76-137.48c-1.78-1.78-4.22-2.77-6.75-2.77h-48.61v-196.74c-.09-31.64-25.73-57.28-57.38-57.28h-22.41v-18c-.05-40.45-32.91-73.22-73.36-73.22h-158.39l-3.14-6.38h.05c-9.52-19.55-29.3-31.97-51-32.02h-211.64c-31.64.05-57.33,25.73-57.38,57.38v326.39h-110.48c-29.77,0-53.91,24.09-53.91,53.86v490.74c.09,29.72,24.19,53.81,53.91,53.91h324.98c29.53-.38,53.3-24.38,53.39-53.91v-335.26h127.22v335.26c.09,29.72,24.19,53.81,53.91,53.91h324.98c29.53-.38,53.3-24.38,53.39-53.91v-397.87c.19-1.17.19-2.39,0-3.61l-1.88-1.74ZM958.48,522.51l105.75,107.77-70.64-.05c-19.41,0-35.11-15.7-35.11-35.11v-72.61ZM749.98,166.25c14.44,0,28.31,5.72,38.53,15.94s15.98,24.09,15.98,38.53v18h-143.76c-14.67.05-28.08-8.3-34.5-21.47l-24.98-51h148.73ZM482.46,1072.11H157.48c-19.03-.28-34.36-15.61-34.64-34.64v-490.74c0-19.41,15.75-35.11,35.16-35.11h222.24v83.48c0,29.77,24.14,53.86,53.86,53.86h83.48l.05,388.5c-.28,19.22-15.94,34.64-35.16,34.64h0ZM504.58,630.22h-70.5c-19.41,0-35.11-15.7-35.11-35.11v-72.61l105.61,107.72ZM663.58,546.74v136.74h-127.22v-43.88c0-1.22-.28-2.48-.75-3.61l-.98-1.5s0-.98-.89-1.5l-134.86-137.48h-.05c-1.73-1.78-4.12-2.77-6.61-2.77h-104.77V166.49c.09-21.28,17.34-38.58,38.62-38.62h211.4c14.67.23,27.98,8.81,34.22,22.12l37.5,76.27c9.61,19.55,29.48,31.92,51.28,31.88h185.02-.05c10.27-.05,20.06,3.98,27.33,11.2,7.22,7.22,11.3,17.06,11.3,27.28v196.26h-166.6c-29.77,0-53.91,24.09-53.91,53.86h.01ZM1041.95,1071.74h-324.98c-18.89-.28-34.17-15.38-34.64-34.27v-490.74c0-19.41,15.75-35.11,35.16-35.11h222.24v83.48c.05,29.72,24.14,53.81,53.86,53.86h83.48l.05,388.5c-.28,19.22-15.94,34.64-35.16,34.64v-.37ZM413.59,766.11h-186.74c-24.84,0-45,20.16-45,45s20.16,45,45,45h186.74c24.84,0,45-20.16,45-45s-20.16-45-45-45ZM413.59,837.36h-186.74c-14.48,0-26.25-11.77-26.25-26.25s11.77-26.25,26.25-26.25h186.74c14.48,0,26.25,11.77,26.25,26.25s-11.77,26.25-26.25,26.25ZM413.59,916.11h-186.74c-24.84,0-45,20.16-45,45s20.16,45,45,45h186.74c24.84,0,45-20.16,45-45s-20.16-45-45-45ZM413.59,987.36h-186.74c-14.48,0-26.25-11.77-26.25-26.25s11.77-26.25,26.25-26.25h186.74c14.48,0,26.25,11.77,26.25,26.25s-11.77,26.25-26.25,26.25ZM973.09,766.1h-186.74c-24.84,0-45,20.16-45,45s20.16,45,45,45h186.74c24.84,0,45-20.16,45-45s-20.16-45-45-45ZM973.09,837.35h-186.74c-14.48,0-26.25-11.77-26.25-26.25s11.77-26.25,26.25-26.25h186.74c14.48,0,26.25,11.77,26.25,26.25s-11.77,26.25-26.25,26.25ZM973.09,916.1h-186.74c-24.84,0-45,20.16-45,45s20.16,45,45,45h186.74c24.84,0,45-20.16,45-45s-20.16-45-45-45ZM973.09,987.35h-186.74c-14.48,0-26.25-11.77-26.25-26.25s11.77-26.25,26.25-26.25h186.74c14.48,0,26.25,11.77,26.25,26.25s-11.77,26.25-26.25,26.25ZM485.59,324.87c.05-5.16,4.22-9.33,9.38-9.38h182.02c5.16,0,9.38,4.17,9.38,9.38s-4.22,9.38-9.38,9.38h-182.39c-5.11,0-9.33-4.12-9.38-9.28l.37-.09ZM766.09,394.47h-360.14c-5.16,0-9.38-4.22-9.38-9.38s4.22-9.38,9.38-9.38h359.76c5.16,0,9.38,4.22,9.38,9.38s-4.22,9.38-9.38,9.38h.38ZM686.74,445.47c-.09,5.16-4.22,9.33-9.38,9.38h-182.76c-5.16,0-9.38-4.22-9.38-9.38s4.22-9.38,9.38-9.38h182.39c5.06,0,9.23,4.03,9.38,9.14l.37.23Z"/>
</svg>